# xmcd
#
# Track frame offsets: 
#        150
#        28346
#        52798
#        69493
#        87748
#        110653
#        130261
#        148639
#        178356
#        203306
#        225669
#        256653
#        272058
#        302900
#        327324
#        342399
#
# Disc length: 4783 seconds
#
# Revision: 0
# Processed by: cddbd v1.5.2PL0 Copyright (c) Steve Scherf et al.
# Submitted via: ExactAudioCopy v0.95a5
#
DISCID=ee12ad10
DTITLE=Various Artist - Akella Presents - Blues-Rock - vol.22  CD1
DYEAR=2010
DGENRE=Blues-Rock
TTITLE0='Till The Hounds Of Hell Come Home - MICHAEL KATON
TTITLE1=Bird On A Wire - RHINO BUCKET
TTITLE2=Eatin' On Me - SOUL DOCTOR
TTITLE3=Whiskey and Water - AMERICAN BLUES BOX
TTITLE4=Sooner or later - INNES SIBUN
TTITLE5=Talk Dirty - WILD T and The SPIRIT
TTITLE6=Mumbo Jumo - BUDDAH HEADS
TTITLE7=Worth the Live - MATT O'REE
TTITLE8=Blues For Money - ROB ORLEMANS
TTITLE9=High Road - GLENN HUGHES
TTITLE10=Brand New Angel - GOV'T MULE
TTITLE11=Middle Age Teenage - PEER GUNT
TTITLE12=Reconsider - JOE BONAMASSA
TTITLE13=Creeper - ROSE TATTOO
TTITLE14=Shock - MICHAEL POWERS
TTITLE15=Down To The Doctor - GREAT WHITE
EXTD=
EXTT0=
EXTT1=
EXTT2=
EXTT3=
EXTT4=
EXTT5=
EXTT6=
EXTT7=
EXTT8=
EXTT9=
EXTT10=
EXTT11=
EXTT12=
EXTT13=
EXTT14=
EXTT15=
PLAYORDER=
